IKResults
version=1
nRows=134
nColumns=3
inDegrees=yes

Units are S.I. units (second, meters, Newtons, ...)
If the header above contains a line with 'inDegrees', this indicates whether rotational values are in degrees (yes) or radians (no).

endheader
time	r_shoulder_elev	r_elbow_flex
     29.40800000	      8.64891278	    140.59012994
     29.41700000	      8.65928781	    140.59258822
     29.42500000	      8.66676061	    140.59441323
     29.43300000	      8.67604173	    140.59628070
     29.44200000	      8.68428553	    140.59717399
     29.45000000	      8.69253772	    140.59791512
     29.45800000	      8.70105646	    140.59692255
     29.46700000	      8.70756215	    140.59535352
     29.47500000	      8.71491301	    140.59295481
     29.48300000	      8.71998945	    140.58993214
     29.49200000	      8.72571003	    140.58747348
     29.50000000	      8.73089280	    140.58432815
     29.50800000	      8.73572361	    140.57967781
     29.51700000	      8.73933455	    140.57491260
     29.52500000	      8.74204885	    140.56840622
     29.53300000	      8.74353185	    140.56158665
     29.54200000	      8.74401007	    140.55480157
     29.55000000	      8.74458472	    140.54795120
     29.55800000	      8.74535660	    140.54005777
     29.56700000	      8.74503892	    140.53282978
     29.57500000	      8.74258696	    140.52568471
     29.58300000	      8.74028229	    140.51933810
     29.59200000	      8.73771445	    140.51429402
     29.60000000	      8.73459686	    140.50949309
     29.60800000	      8.73172259	    140.50513753
     29.61700000	      8.72843813	    140.50168825
     29.62500000	      8.72607080	    140.49896874
     29.63300000	      8.72304655	    140.49771841
     29.64200000	      8.71979522	    140.49487955
     29.65000000	      8.71790297	    140.49408346
     29.65800000	      8.71544901	    140.49305292
     29.66700000	      8.71222611	    140.49189492
     29.67500000	      8.70939182	    140.49110044
     29.68300000	      8.70774249	    140.49011165
     29.69200000	      8.70478151	    140.48878574
     29.70000000	      8.70200548	    140.48772105
     29.70800000	      8.69794996	    140.48665852
     29.71700000	      8.69527396	    140.48515157
     29.72500000	      8.69196790	    140.48400860
     29.73300000	      8.68868211	    140.48233173
     29.74200000	      8.68570692	    140.48074220
     29.75000000	      8.68156552	    140.47766203
     29.75800000	      8.67857451	    140.47511384
     29.76700000	      8.67595480	    140.47242850
     29.77500000	      8.67341385	    140.46915083
     29.78300000	      8.67128104	    140.46593806
     29.79200000	      8.66961075	    140.46177286
     29.80000000	      8.66931983	    140.45715446
     29.80800000	      8.66888830	    140.45065618
     29.81700000	      8.66937806	    140.44364439
     29.82500000	      8.66929665	    140.43789787
     29.83300000	      8.66969725	    140.43048052
     29.84200000	      8.67102369	    140.42333567
     29.85000000	      8.67228543	    140.41579776
     29.85800000	      8.67288118	    140.40830704
     29.86700000	      8.67570277	    140.39994663
     29.87500000	      8.67833837	    140.39087565
     29.88300000	      8.68279736	    140.38267177
     29.89200000	      8.68481728	    140.37538202
     29.90000000	      8.68926132	    140.36626932
     29.90800000	      8.69422099	    140.35932800
     29.91700000	      8.69958025	    140.35021593
     29.92500000	      8.70447652	    140.34223003
     29.93300000	      8.71065085	    140.33629599
     29.94200000	      8.71567733	    140.32904571
     29.95000000	      8.71821488	    140.32281656
     29.95800000	      8.72392748	    140.31716186
     29.96700000	      8.72859298	    140.31189232
     29.97500000	      8.73233829	    140.30570243
     29.98300000	      8.73737143	    140.29984632
     29.99200000	      8.74191478	    140.29363366
     30.00000000	      8.74746733	    140.28633369
     30.00800000	      8.75111343	    140.27813258
     30.01700000	      8.75621927	    140.27064326
     30.02500000	      8.75899018	    140.26153668
     30.03300000	      8.76196755	    140.25318644
     30.04200000	      8.76608455	    140.24261531
     30.05000000	      8.76869223	    140.23311159
     30.05800000	      8.77038135	    140.22321838
     30.06700000	      8.77149160	    140.21293750
     30.07500000	      8.77257738	    140.20326666
     30.08300000	      8.77253085	    140.19323444
     30.09200000	      8.77374113	    140.18280741
     30.10000000	      8.77471561	    140.17295055
     30.10800000	      8.77563538	    140.16324835
     30.11700000	      8.77853662	    140.15272489
     30.12500000	      8.77978693	    140.14276787
     30.13300000	      8.78276823	    140.13152519
     30.14200000	      8.78643439	    140.12009303
     30.15000000	      8.78832422	    140.10747371
     30.15800000	      8.79163584	    140.09421506
     30.16700000	      8.79459844	    140.08139249
     30.17500000	      8.79886829	    140.06928311
     30.18300000	      8.80344035	    140.05704610
     30.19200000	      8.81120944	    140.04671998
     30.20000000	      8.81835861	    140.03627090
     30.20800000	      8.82606879	    140.02729660
     30.21700000	      8.83421093	    140.01813274
     30.22500000	      8.84087628	    140.00928107
     30.23300000	      8.84787623	    140.00050304
     30.24200000	      8.85473378	    139.99071250
     30.25000000	      8.85986916	    139.98195153
     30.25800000	      8.86451553	    139.97184713
     30.26700000	      8.86921643	    139.96368159
     30.27500000	      8.87348741	    139.95494559
     30.28300000	      8.87811088	    139.94413541
     30.29200000	      8.88168479	    139.93181399
     30.30000000	      8.88166681	    139.91698054
     30.30800000	      8.88086723	    139.90242271
     30.31700000	      8.88053509	    139.88762461
     30.32500000	      8.88120102	    139.87243175
     30.33300000	      8.87953043	    139.85784607
     30.34200000	      8.88007565	    139.84276664
     30.35000000	      8.88059966	    139.82871436
     30.35800000	      8.88136476	    139.81347724
     30.36700000	      8.88301629	    139.79692982
     30.37500000	      8.88473983	    139.78225218
     30.38300000	      8.88738134	    139.76691265
     30.39200000	      8.89103461	    139.75112344
     30.40000000	      8.89467216	    139.73649526
     30.40800000	      8.90068342	    139.72218804
     30.41700000	      8.90691720	    139.70705499
     30.42500000	      8.91262564	    139.69415357
     30.43300000	      8.92187506	    139.68234641
     30.44200000	      8.92979370	    139.66982085
     30.45000000	      8.93647667	    139.65678120
     30.45800000	      8.94458485	    139.64595979
     30.46700000	      8.95294027	    139.63590535
     30.47500000	      8.96187496	    139.62516546
     30.48300000	      8.97064082	    139.61626163
     30.49200000	      8.98057654	    139.60709294
     30.50000000	      8.98901402	    139.59794673
     30.50800000	      8.99632500	    139.58949460
     30.51700000	      9.00454845	    139.58138912
